<mxfile host="app.diagrams.net" modified="2023-11-14T13:34:06.719Z" agent="Mozilla/5.0 (Windows NT 10.0; Win64; x64) AppleWebKit/537.36 (KHTML, like Gecko) Chrome/119.0.0.0 Safari/537.36 Edg/119.0.0.0" etag="05edTCD9BMTzP2BDuwAj" version="22.1.0" type="device" pages="2">
  <diagram name="list_project_teacher" id="yPF5LSOV7jcZ_kZ6u-SU">
    <mxGraphModel dx="1282" dy="585" grid="1" gridSize="10" guides="1" tooltips="1" connect="1" arrows="1" fold="1" page="1" pageScale="1" pageWidth="827" pageHeight="1169" math="0" shadow="0">
      <root>
        <mxCell id="0" />
        <mxCell id="1" parent="0" />
        <mxCell id="tX2ZMep5Qvd08dOBmB6y-1" value="Teacher" style="shape=umlActor;verticalLabelPosition=bottom;verticalAlign=top;html=1;outlineConnect=0;" parent="1" vertex="1">
          <mxGeometry x="40" y="270" width="30" height="60" as="geometry" />
        </mxCell>
        <mxCell id="tX2ZMep5Qvd08dOBmB6y-2" value="View List Project" style="ellipse;whiteSpace=wrap;html=1;" parent="1" vertex="1">
          <mxGeometry x="210" y="280" width="120" height="80" as="geometry" />
        </mxCell>
        <mxCell id="tX2ZMep5Qvd08dOBmB6y-6" value="" style="endArrow=none;html=1;rounded=0;" parent="1" source="tX2ZMep5Qvd08dOBmB6y-1" target="tX2ZMep5Qvd08dOBmB6y-2" edge="1">
          <mxGeometry width="50" height="50" relative="1" as="geometry">
            <mxPoint x="270" y="430" as="sourcePoint" />
            <mxPoint x="320" y="380" as="targetPoint" />
          </mxGeometry>
        </mxCell>
        <mxCell id="tX2ZMep5Qvd08dOBmB6y-7" value="Login" style="ellipse;whiteSpace=wrap;html=1;" parent="1" vertex="1">
          <mxGeometry x="420" y="160" width="120" height="80" as="geometry" />
        </mxCell>
        <mxCell id="tX2ZMep5Qvd08dOBmB6y-8" value="&amp;lt;&amp;lt;include&amp;gt;&amp;gt;" style="html=1;verticalAlign=bottom;endArrow=open;dashed=1;endSize=8;curved=0;rounded=0;" parent="1" source="tX2ZMep5Qvd08dOBmB6y-2" target="tX2ZMep5Qvd08dOBmB6y-7" edge="1">
          <mxGeometry x="-0.118" y="16" relative="1" as="geometry">
            <mxPoint x="330" y="410" as="sourcePoint" />
            <mxPoint x="250" y="410" as="targetPoint" />
            <mxPoint as="offset" />
          </mxGeometry>
        </mxCell>
        <mxCell id="tX2ZMep5Qvd08dOBmB6y-9" value="Add new Project" style="ellipse;whiteSpace=wrap;html=1;" parent="1" vertex="1">
          <mxGeometry x="430" y="330" width="120" height="80" as="geometry" />
        </mxCell>
        <mxCell id="tX2ZMep5Qvd08dOBmB6y-10" value="&amp;lt;&amp;lt;extend&amp;gt;&amp;gt;" style="html=1;verticalAlign=bottom;endArrow=open;dashed=1;endSize=8;curved=0;rounded=0;" parent="1" source="tX2ZMep5Qvd08dOBmB6y-9" target="tX2ZMep5Qvd08dOBmB6y-2" edge="1">
          <mxGeometry x="0.0118" y="-16" relative="1" as="geometry">
            <mxPoint x="330" y="410" as="sourcePoint" />
            <mxPoint x="250" y="410" as="targetPoint" />
            <mxPoint as="offset" />
          </mxGeometry>
        </mxCell>
        <mxCell id="tX2ZMep5Qvd08dOBmB6y-11" value="View Detail Project" style="ellipse;whiteSpace=wrap;html=1;" parent="1" vertex="1">
          <mxGeometry x="430" y="480" width="120" height="80" as="geometry" />
        </mxCell>
        <mxCell id="tX2ZMep5Qvd08dOBmB6y-12" value="&amp;lt;&amp;lt;extend&amp;gt;&amp;gt;" style="html=1;verticalAlign=bottom;endArrow=open;dashed=1;endSize=8;curved=0;rounded=0;" parent="1" source="tX2ZMep5Qvd08dOBmB6y-11" target="tX2ZMep5Qvd08dOBmB6y-2" edge="1">
          <mxGeometry x="0.2435" y="37" relative="1" as="geometry">
            <mxPoint x="330" y="410" as="sourcePoint" />
            <mxPoint x="250" y="410" as="targetPoint" />
            <mxPoint as="offset" />
          </mxGeometry>
        </mxCell>
        <mxCell id="tX2ZMep5Qvd08dOBmB6y-16" value="" style="swimlane;startSize=0;" parent="1" vertex="1">
          <mxGeometry x="180" y="40" width="610" height="550" as="geometry" />
        </mxCell>
        <mxCell id="tX2ZMep5Qvd08dOBmB6y-14" value="&lt;b&gt;&lt;font style=&quot;font-size: 19px;&quot;&gt;View List Project&lt;/font&gt;&lt;/b&gt;" style="text;html=1;strokeColor=none;fillColor=none;align=center;verticalAlign=middle;whiteSpace=wrap;rounded=0;" parent="tX2ZMep5Qvd08dOBmB6y-16" vertex="1">
          <mxGeometry x="190" y="10" width="210" height="60" as="geometry" />
        </mxCell>
      </root>
    </mxGraphModel>
  </diagram>
  <diagram name="instruction_notification" id="8nPSmCvb1-VgXbnModZw">
    <mxGraphModel dx="1282" dy="585" grid="1" gridSize="10" guides="1" tooltips="1" connect="1" arrows="1" fold="1" page="1" pageScale="1" pageWidth="827" pageHeight="1169" math="0" shadow="0">
      <root>
        <mxCell id="AdG777RdLG3X-b_imABV-0" />
        <mxCell id="AdG777RdLG3X-b_imABV-1" parent="AdG777RdLG3X-b_imABV-0" />
        <mxCell id="aJpHihl17p1YNW_-oppW-0" value="Student" style="shape=umlActor;verticalLabelPosition=bottom;verticalAlign=top;html=1;outlineConnect=0;" vertex="1" parent="AdG777RdLG3X-b_imABV-1">
          <mxGeometry x="220" y="180" width="30" height="60" as="geometry" />
        </mxCell>
        <mxCell id="aJpHihl17p1YNW_-oppW-1" value="Login" style="ellipse;whiteSpace=wrap;html=1;" vertex="1" parent="AdG777RdLG3X-b_imABV-1">
          <mxGeometry x="580" y="100" width="120" height="80" as="geometry" />
        </mxCell>
        <mxCell id="aJpHihl17p1YNW_-oppW-2" value="" style="endArrow=none;html=1;rounded=0;exitX=0.5;exitY=0.5;exitDx=0;exitDy=0;exitPerimeter=0;" edge="1" parent="AdG777RdLG3X-b_imABV-1" source="aJpHihl17p1YNW_-oppW-0" target="aJpHihl17p1YNW_-oppW-5">
          <mxGeometry width="50" height="50" relative="1" as="geometry">
            <mxPoint x="390" y="300" as="sourcePoint" />
            <mxPoint x="440" y="250" as="targetPoint" />
          </mxGeometry>
        </mxCell>
        <mxCell id="aJpHihl17p1YNW_-oppW-3" value="&amp;lt;&amp;lt;include&amp;gt;&amp;gt;" style="html=1;verticalAlign=bottom;labelBackgroundColor=none;endArrow=open;endFill=0;dashed=1;rounded=0;" edge="1" parent="AdG777RdLG3X-b_imABV-1" source="aJpHihl17p1YNW_-oppW-5" target="aJpHihl17p1YNW_-oppW-1">
          <mxGeometry x="-0.1156" y="8" width="160" relative="1" as="geometry">
            <mxPoint x="330" y="280" as="sourcePoint" />
            <mxPoint x="490" y="280" as="targetPoint" />
            <mxPoint as="offset" />
          </mxGeometry>
        </mxCell>
        <mxCell id="aJpHihl17p1YNW_-oppW-4" value="" style="swimlane;startSize=0;" vertex="1" parent="AdG777RdLG3X-b_imABV-1">
          <mxGeometry x="310" y="10" width="490" height="360" as="geometry" />
        </mxCell>
        <mxCell id="aJpHihl17p1YNW_-oppW-5" value="View Instruction Notification" style="ellipse;whiteSpace=wrap;html=1;" vertex="1" parent="aJpHihl17p1YNW_-oppW-4">
          <mxGeometry x="50" y="170" width="120" height="80" as="geometry" />
        </mxCell>
        <mxCell id="aJpHihl17p1YNW_-oppW-6" value="&lt;b&gt;&lt;font style=&quot;font-size: 21px;&quot;&gt;View Instuction Notification&lt;/font&gt;&lt;/b&gt;" style="text;html=1;strokeColor=none;fillColor=none;align=center;verticalAlign=middle;whiteSpace=wrap;rounded=0;" vertex="1" parent="aJpHihl17p1YNW_-oppW-4">
          <mxGeometry x="90" y="10" width="310" height="30" as="geometry" />
        </mxCell>
      </root>
    </mxGraphModel>
  </diagram>
</mxfile>
